<?xml version="1.0" encoding="UTF-8"?>
<svg xmlns="http://www.w3.org/2000/svg" xmlns:xlink="http://www.w3.org/1999/xlink" viewBox="0 0 64 64" width="512" height="512"><defs><linearGradient id="New_Gradient_Swatch_3" x1="32" y1="68.135" x2="32" y2="2.095" gradientUnits="userSpaceOnUse"><stop offset="0" stop-color="#006df0"/><stop offset="1" stop-color="#00e7f0"/></linearGradient><linearGradient id="New_Gradient_Swatch_3-2" x1="32" y1="68.135" x2="32" y2="2.095" xlink:href="#New_Gradient_Swatch_3"/><linearGradient id="New_Gradient_Swatch_3-3" x1="18" y1="68.135" x2="18" y2="2.095" xlink:href="#New_Gradient_Swatch_3"/></defs><g id="Layer_45" data-name="Layer 45"><path d="M59,23h-.49A27.994,27.994,0,0,0,5.49,23H5a3.009,3.009,0,0,0-3,3V38a3.009,3.009,0,0,0,3,3h.49a27.846,27.846,0,0,0,6.27,10.34.022.022,0,0,0,.02.02.01.01,0,0,0,.01.01,27.723,27.723,0,0,0,19.68,8.62c.18.01.88.01,1.02,0a28.063,28.063,0,0,0,12.06-2.97l2.58,4.48a1.056,1.056,0,0,0,.61.47A1.153,1.153,0,0,0,48,62a1.094,1.094,0,0,0,.5-.13l6.93-4a1,1,0,0,0,.36-1.37l-3.2-5.55A27.759,27.759,0,0,0,58.51,41H59a3.009,3.009,0,0,0,3-3V26A3.009,3.009,0,0,0,59,23Zm-2.61,0H47.14a39.743,39.743,0,0,0-1.61-5.99,31.855,31.855,0,0,0,5.8-2.42A26.123,26.123,0,0,1,56.39,23Zm-6.51-9.9a30.405,30.405,0,0,1-5.08,2.04,22.769,22.769,0,0,0-5.45-8.08A25.876,25.876,0,0,1,49.88,13.1ZM33,6.07c3.81.53,7.41,4.04,9.86,9.61A44.34,44.34,0,0,1,33,16.97Zm0,12.9a46.106,46.106,0,0,0,10.6-1.42A38.426,38.426,0,0,1,45.11,23H33ZM31,6.07v10.9a44.34,44.34,0,0,1-9.86-1.29C23.59,10.11,27.19,6.6,31,6.07Zm0,12.9V23H18.89a38.426,38.426,0,0,1,1.51-5.45A46.106,46.106,0,0,0,31,18.97ZM24.65,7.06a22.769,22.769,0,0,0-5.45,8.08,30.754,30.754,0,0,1-5.08-2.04A25.876,25.876,0,0,1,24.65,7.06ZM12.67,14.59a32.155,32.155,0,0,0,5.8,2.42A39.743,39.743,0,0,0,16.86,23H7.61A26.123,26.123,0,0,1,12.67,14.59ZM7.6,41h9.26a39.743,39.743,0,0,0,1.61,5.99A31.53,31.53,0,0,0,12.7,49.4,25.878,25.878,0,0,1,7.6,41Zm6.54,9.89a30.165,30.165,0,0,1,5.06-2.03,22.769,22.769,0,0,0,5.45,8.08A25.764,25.764,0,0,1,14.14,50.89ZM31,57.93c-3.81-.53-7.41-4.04-9.86-9.61A44.34,44.34,0,0,1,31,47.03Zm0-12.9a46.106,46.106,0,0,0-10.6,1.42A38.426,38.426,0,0,1,18.89,41H31Zm2,12.88V47.02c.94.02,1.86.07,2.76.14l-.45,5.5a.986.986,0,0,0,.53.97,1,1,0,0,0,1.1-.12l3.78-3.11.56.96C38.96,55.2,36.06,57.49,33,57.91Zm0-12.89V41h3.28l-.35,4.17C34.97,45.09,33.99,45.04,33,45.02Zm6.33,11.91a18.192,18.192,0,0,0,3.08-3.61l1.14,1.97A25.773,25.773,0,0,1,39.33,56.93Zm14.23-.3-5.19,3-6.5-11.25a.994.994,0,0,0-.69-.49,1.087,1.087,0,0,0-.18-.01,1.055,1.055,0,0,0-.64.22L37.5,50.46l1.13-13.68,12.43,5.86-3.48,1.3a.975.975,0,0,0-.59.6,1.032,1.032,0,0,0,.07.84Zm-2.02-7.49L49.38,45.4l4.59-1.72a1,1,0,0,0,.08-1.84L52.28,41H56.4A26.018,26.018,0,0,1,51.54,49.14ZM60,38a1,1,0,0,1-1,1H48.03L43.5,36.86a.912.912,0,0,0,.39-.41L46,32.24l2.11,4.21A.988.988,0,0,0,49,37a.41.41,0,0,0,.11-.01.979.979,0,0,0,.86-.75l2-8a1,1,0,0,0-1.94-.48l-1.34,5.37-1.8-3.58a1.039,1.039,0,0,0-1.78,0l-1.8,3.58-1.34-5.37a1,1,0,0,0-1.94.48l1.98,7.92-3.83-1.81a1,1,0,0,0-.92.04,1.012,1.012,0,0,0-.5.79L36.44,39H5a1,1,0,0,1-1-1V26a1,1,0,0,1,1-1H59a1,1,0,0,1,1,1Z" style="fill:url(#New_Gradient_Swatch_3)"/><path d="M37.242,27.03a1,1,0,0,0-1.212.727l-1.344,5.378L32.9,29.553a1.042,1.042,0,0,0-1.79,0l-1.791,3.582L27.97,27.757a1,1,0,0,0-1.94.486l2,8a1,1,0,0,0,1.865.2L32,32.236l2.1,4.211a1,1,0,0,0,1.865-.2l2-8A1,1,0,0,0,37.242,27.03Z" style="fill:url(#New_Gradient_Swatch_3-2)"/><path d="M23.243,27.03a1,1,0,0,0-1.213.727l-1.344,5.378L18.9,29.553a1.042,1.042,0,0,0-1.79,0l-1.791,3.582L13.97,27.757a1,1,0,1,0-1.94.486l2,8a1,1,0,0,0,1.865.2L18,32.236l2.105,4.211a1,1,0,0,0,1.865-.2l2-8A1,1,0,0,0,23.243,27.03Z" style="fill:url(#New_Gradient_Swatch_3-3)"/></g></svg>
