<svg id="Line_Gradient" height="512" viewBox="0 0 32 32" width="512" xmlns="http://www.w3.org/2000/svg" xmlns:xlink="http://www.w3.org/1999/xlink"><linearGradient id="lg1"><stop offset="0" stop-color="#fd6700"/><stop offset="1" stop-color="#ffce00"/></linearGradient><linearGradient id="SVGID_1_" gradientUnits="userSpaceOnUse" x1="-1.894" x2="30.454" xlink:href="#lg1" y1="15.99" y2="15.99"/><linearGradient id="SVGID_2_" gradientUnits="userSpaceOnUse" x1="-1.894" x2="30.454" xlink:href="#lg1" y1="14" y2="14"/><g><path d="m29.38574 22.27344-1.58984-1.59082-1.41406 1.41406s1.58671 1.58768 1.58984 1.59082c1.17215 1.17287 1.35852 3.39333.06934 4.54786-1.14941 1.02832-3.04004.97461-4.12598-.1123l-3.06879-3.06958c3.70782-2.29248 6.19183-6.3833 6.19183-11.05347 0-7.16797-5.83203-13-13-13-4.98046-.00001-9.44726 2.77245-11.65624 7.23632l1.79296.88672c1.86915-3.77637 5.64844-6.12305 9.86329-6.12305 6.06543 0 11 4.93457 11 11s-4.93457 11-11 11-11-4.93457-11-11c0-1.07812.15723-2.14551.46777-3.16992l-1.91406-.58008c-.36719 1.21289-.55371 2.47461-.55371 3.75 0 7.16797 5.83203 13 13 13 1.75031 0 3.41864-.35248 4.94415-.98248 0 0 3.51646 3.51732 3.51874 3.51959 1.84979 1.85024 4.927 1.93061 6.87398.18852 2.17076-1.94234 2.00788-5.45509.01078-7.45219z" fill="url(#SVGID_1_)"/><g fill="url(#SVGID_2_)"><path d="m16 12v-2h-5v8h5v-2h-3v-1h3v-2h-3v-1z"/><path d="m6.5 12h2.5v-2h-2.5c-1.37891 0-2.5 1.12109-2.5 2.5s1.12109 2.5 2.5 2.5h1c.27539 0 .5.22461.5.5s-.22461.5-.5.5h-2.5v2h2.5c1.37891 0 2.5-1.12109 2.5-2.5s-1.12109-2.5-2.5-2.5h-1c-.27539 0-.5-.22461-.5-.5s.22461-.5.5-.5z"/><path d="m23.27637 10h-6v8h6zm-2 6h-2v-4h2z"/></g></g></svg>