<?xml version="1.0" encoding="UTF-8"?>
<svg xmlns="http://www.w3.org/2000/svg" xmlns:xlink="http://www.w3.org/1999/xlink" version="1.1" id="Capa_1" x="0px" y="0px" viewBox="0 0 512 512" style="enable-background:new 0 0 512 512;" xml:space="preserve" width="512" height="512">
<g>
	
		<linearGradient id="Blessing_00000077324399105255443490000018327393818920538764_" gradientUnits="userSpaceOnUse" x1="0" y1="256" x2="512" y2="256">
		<stop offset="0" style="stop-color:#9DD6FC"/>
		<stop offset="0.0056" style="stop-color:#9DD6FC"/>
		<stop offset="1" style="stop-color:#D17FF7"/>
	</linearGradient>
	
		<path id="Blessing" style="fill:none;stroke:url(#Blessing_00000077324399105255443490000018327393818920538764_);stroke-width:40;stroke-linecap:round;stroke-linejoin:round;stroke-miterlimit:10;" d="&#10;&#9;&#9;M256,491.999V367.485c0-34.434,22.034-65.006,54.702-75.895l48.64-17.547c3.978-1.326,8.234-2.044,12.658-2.044&#10;&#9;&#9;c22.091,0,40,17.909,40,40c0,17.668-11.454,32.66-27.342,37.956L332,367.508 M100,311.999v-140c0-22.091-17.909-40-40-40&#10;&#9;&#9;s-40,17.909-40,40v140.013c0,51.652,33.052,97.508,82.053,113.842C124.714,433.408,140,454.615,140,478.503v13.496h232l0-13.496&#10;&#9;&#9;c0-23.888,15.285-45.095,37.947-52.649C458.948,409.52,492,363.664,492,312.012V171.999c0-22.091-17.909-40-40-40s-40,17.909-40,40&#10;&#9;&#9;v140 M256,367.485c0-34.434-22.034-65.006-54.702-75.895l-48.64-17.547c-3.978-1.326-8.234-2.044-12.658-2.044&#10;&#9;&#9;c-22.091,0-40,17.909-40,40c0,17.668,11.454,32.66,27.342,37.956L180,367.508 M216.001,20.001c-23.68,0-40,24.639-40,53.333&#10;&#9;&#9;c0,33.213,22.246,72.511,80,106.667c57.754-34.155,80-73.453,80-106.667c0-28.694-16.32-53.333-40-53.333c-26.56,0-40,24-40,24&#10;&#9;&#9;S242.561,20.001,216.001,20.001z"/>
</g>















</svg>
