<svg
    width="150" height="100" xmlns="http://www.w3.org/2000/svg"
>
    <rect x="0" y="10" width="5" height="5" fill="#dcff05" />
    <rect x="10" y="10" width="5" height="5" fill="#dcff05" />
    <rect x="20" y="10" width="5" height="5" fill="#dcff05" />
    <rect x="30" y="10" width="5" height="5" fill="#dcff05" />
    <rect x="40" y="10" width="5" height="5" fill="#dcff05" />
    <rect x="50" y="10" width="5" height="5" fill="#dcff05" />
    <rect x="60" y="10" width="5" height="5" fill="#dcff05" />
    <rect x="70" y="10" width="5" height="5" fill="#dcff05" />
    <rect x="80" y="10" width="5" height="5" fill="#dcff05" />
    <rect x="90" y="10" width="5" height="5" fill="#dcff05" />
    <rect x="100" y="10" width="5" height="5" fill="#dcff05" />
    <rect x="110" y="10" width="5" height="5" fill="#dcff05" />
    <!--  2" -->
    <rect x="0" y="20" width="5" height="5" fill="#dcff05" />
    <rect x="10" y="20" width="5" height="5" fill="#dcff05" />
    <rect x="20" y="20" width="5" height="5" fill="#dcff05" />
    <rect x="30" y="20" width="5" height="5" fill="#dcff05" />
    <rect x="40" y="20" width="5" height="5" fill="#dcff05" />
    <rect x="50" y="20" width="5" height="5" fill="#dcff05" />
    <rect x="60" y="20" width="5" height="5" fill="#dcff05" />
    <rect x="70" y="20" width="5" height="5" fill="#dcff05" />
    <rect x="80" y="20" width="5" height="5" fill="#dcff05" />
    <rect x="90" y="20" width="5" height="5" fill="#dcff05" />
    <rect x="100" y="20" width="5" height="5" fill="#dcff05" />
    <rect x="110" y="20" width="5" height="5" fill="#dcff05" />
    <!--  3" -->
    <rect x="0" y="30" width="5" height="5" fill="#dcff05" />
    <rect x="10" y="30" width="5" height="5" fill="#dcff05" />
    <rect x="20" y="30" width="5" height="5" fill="#dcff05" />
    <rect x="30" y="30" width="5" height="5" fill="#dcff05" />
    <rect x="40" y="30" width="5" height="5" fill="#dcff05" />
    <rect x="50" y="30" width="5" height="5" fill="#dcff05" />
    <rect x="60" y="30" width="5" height="5" fill="#dcff05" />
    <rect x="70" y="30" width="5" height="5" fill="#dcff05" />
    <rect x="80" y="30" width="5" height="5" fill="#dcff05" />
    <rect x="90" y="30" width="5" height="5" fill="#dcff05" />
    <rect x="100" y="30" width="5" height="5" fill="#dcff05" />
    <rect x="110" y="30" width="5" height="5" fill="#dcff05" />
    <!--  4" -->
    <rect x="0" y="40" width="5" height="5" fill="#dcff05" />
    <rect x="10" y="40" width="5" height="5" fill="#dcff05" />
    <rect x="20" y="40" width="5" height="5" fill="#dcff05" />
    <rect x="30" y="40" width="5" height="5" fill="#dcff05" />
    <rect x="40" y="40" width="5" height="5" fill="#dcff05" />
    <rect x="50" y="40" width="5" height="5" fill="#dcff05" />
    <rect x="60" y="40" width="5" height="5" fill="#dcff05" />
    <rect x="70" y="40" width="5" height="5" fill="#dcff05" />
    <rect x="80" y="40" width="5" height="5" fill="#dcff05" />
    <rect x="90" y="40" width="5" height="5" fill="#dcff05" />
    <rect x="100" y="40" width="5" height="5" fill="#dcff05" />
    <rect x="110" y="40" width="5" height="5" fill="#dcff05" />
    <!--  5" -->
    <rect x="0" y="50" width="5" height="5" fill="#dcff05" />
    <rect x="10" y="50" width="5" height="5" fill="#dcff05" />
    <rect x="20" y="50" width="5" height="5" fill="#dcff05" />
    <rect x="30" y="50" width="5" height="5" fill="#dcff05" />
    <rect x="40" y="50" width="5" height="5" fill="#dcff05" />
    <rect x="50" y="50" width="5" height="5" fill="#dcff05" />
    <rect x="60" y="50" width="5" height="5" fill="#dcff05" />
    <rect x="70" y="50" width="5" height="5" fill="#dcff05" />
    <rect x="80" y="50" width="5" height="5" fill="#dcff05" />
    <rect x="90" y="50" width="5" height="5" fill="#dcff05" />
    <rect x="100" y="50" width="5" height="5" fill="#dcff05" />
    <rect x="110" y="50" width="5" height="5" fill="#dcff05" />
    <!--  6" -->
    <rect x="0" y="60" width="5" height="5" fill="#dcff05" />
    <rect x="10" y="60" width="5" height="5" fill="#dcff05" />
    <rect x="20" y="60" width="5" height="5" fill="#dcff05" />
    <rect x="30" y="60" width="5" height="5" fill="#dcff05" />
    <rect x="40" y="60" width="5" height="5" fill="#dcff05" />
    <rect x="50" y="60" width="5" height="5" fill="#dcff05" />
    <rect x="60" y="60" width="5" height="5" fill="#dcff05" />
    <rect x="70" y="60" width="5" height="5" fill="#dcff05" />
    <rect x="80" y="60" width="5" height="5" fill="#dcff05" />
    <rect x="90" y="60" width="5" height="5" fill="#dcff05" />
    <rect x="100" y="60" width="5" height="5" fill="#dcff05" />
    <rect x="110" y="60" width="5" height="5" fill="#dcff05" />
    <!--  7" -->
    <rect x="0" y="70" width="5" height="5" fill="#dcff05" />
    <rect x="10" y="70" width="5" height="5" fill="#dcff05" />
    <rect x="20" y="70" width="5" height="5" fill="#dcff05" />
    <rect x="30" y="70" width="5" height="5" fill="#dcff05" />
    <rect x="40" y="70" width="5" height="5" fill="#dcff05" />
    <rect x="50" y="70" width="5" height="5" fill="#dcff05" />
    <rect x="60" y="70" width="5" height="5" fill="#dcff05" />
    <rect x="70" y="70" width="5" height="5" fill="#dcff05" />
    <rect x="80" y="70" width="5" height="5" fill="#dcff05" />
    <rect x="90" y="70" width="5" height="5" fill="#dcff05" />
    <rect x="100" y="70" width="5" height="5" fill="#dcff05" />
    <rect x="110" y="70" width="5" height="5" fill="#dcff05" />
    <!--  8" -->
    <rect x="0" y="80" width="5" height="5" fill="#dcff05" />
    <rect x="10" y="80" width="5" height="5" fill="#dcff05" />
    <rect x="20" y="80" width="5" height="5" fill="#dcff05" />
    <rect x="30" y="80" width="5" height="5" fill="#dcff05" />
    <rect x="40" y="80" width="5" height="5" fill="#dcff05" />
    <rect x="50" y="80" width="5" height="5" fill="#dcff05" />
    <rect x="60" y="80" width="5" height="5" fill="#dcff05" />
    <rect x="70" y="80" width="5" height="5" fill="#dcff05" />
    <rect x="80" y="80" width="5" height="5" fill="#dcff05" />
    <rect x="90" y="80" width="5" height="5" fill="#dcff05" />
    <rect x="100" y="80" width="5" height="5" fill="#dcff05" />
    <rect x="110" y="80" width="5" height="5" fill="#dcff05" />
</svg>