<svg xmlns="http://www.w3.org/2000/svg" xmlns:xlink="http://www.w3.org/1999/xlink" width="500" zoomAndPan="magnify" viewBox="0 0 375 374.999991" height="500" preserveAspectRatio="xMidYMid meet" version="1.0"><defs><g/></defs><g fill="#000000" fill-opacity="1"><g transform="translate(89.247698, 333.473064)"><g><path d="M 197.6875 -42.8125 C 198.519531 -41.6875 198.9375 -40.285156 198.9375 -38.609375 C 198.9375 -36.085938 197.539062 -33.847656 194.75 -31.890625 L 148.578125 -1.671875 C 146.898438 -0.273438 144.660156 0.140625 141.859375 -0.421875 C 139.054688 -1.253906 137.238281 -2.789062 136.40625 -5.03125 C 125.488281 -29.09375 118.070312 -44.203125 114.15625 -50.359375 L 114.15625 -50.78125 C 106.320312 -64.769531 100.304688 -75.265625 96.109375 -82.265625 L 88.984375 -94.015625 L 65.46875 -87.71875 L 64.21875 -11.328125 C 64.21875 -5.734375 61.421875 -2.9375 55.828125 -2.9375 L 4.203125 -2.9375 C 1.679688 -2.9375 -0.347656 -3.773438 -1.890625 -5.453125 C -3.429688 -7.128906 -4.203125 -9.226562 -4.203125 -11.75 L 13.015625 -271.546875 C 13.296875 -276.023438 15.671875 -278.679688 20.140625 -279.515625 L 83.515625 -287.5 L 83.9375 -287.5 L 95.6875 -288.75 C 106.882812 -289.875 115.5625 -290.4375 121.71875 -290.4375 C 134.03125 -290.4375 144.660156 -289.316406 153.609375 -287.078125 C 169.554688 -283.722656 181.726562 -275.1875 190.125 -261.46875 C 198.519531 -247.757812 202.71875 -231.671875 202.71875 -213.203125 C 202.71875 -199.210938 200.335938 -185.082031 195.578125 -170.8125 C 190.828125 -157.382812 183.132812 -145.21875 172.5 -134.3125 C 166.0625 -128.425781 160.601562 -123.945312 156.125 -120.875 Z M 106.609375 -265.671875 L 106.609375 -266.515625 L 102.828125 -266.515625 L 102.828125 -265.671875 Z M 103.25 -262.734375 L 103.25 -261.46875 L 105.34375 -261.46875 C 105.34375 -261.75 105.625 -262.171875 106.1875 -262.734375 L 106.609375 -263.15625 L 103.671875 -263.15625 Z M 124.234375 -261.0625 C 124.234375 -261.332031 123.953125 -261.46875 123.390625 -261.46875 C 122.828125 -261.46875 122.546875 -261.75 122.546875 -262.3125 L 122.546875 -260.21875 Z M 116.671875 -259.375 L 117.515625 -260.21875 L 116.671875 -260.21875 L 115.84375 -259.375 Z M 107.859375 -258.53125 C 108.421875 -258.53125 108.703125 -258.394531 108.703125 -258.125 C 108.703125 -257.84375 108.84375 -257.703125 109.125 -257.703125 C 109.6875 -257.703125 109.96875 -257.84375 109.96875 -258.125 L 109.96875 -258.53125 Z M 99.046875 -256.4375 C 97.367188 -255.039062 97.085938 -253.640625 98.203125 -252.234375 L 101.140625 -252.234375 L 101.140625 -252.65625 C 101.140625 -253.78125 100.441406 -255.039062 99.046875 -256.4375 Z M 143.953125 -256.4375 C 143.671875 -256.15625 143.738281 -255.734375 144.15625 -255.171875 C 144.582031 -254.617188 145.078125 -254.34375 145.640625 -254.34375 C 145.921875 -254.34375 146.0625 -254.617188 146.0625 -255.171875 C 146.0625 -255.171875 146.195312 -255.238281 146.46875 -255.375 C 146.75 -255.519531 146.890625 -255.734375 146.890625 -256.015625 Z M 136.40625 -255.59375 C 135.007812 -254.195312 134.171875 -253.21875 133.890625 -252.65625 L 134.3125 -252.65625 L 134.71875 -252.234375 L 135.140625 -252.234375 C 136.546875 -253.078125 137.25 -253.78125 137.25 -254.34375 C 137.25 -254.625 136.96875 -255.039062 136.40625 -255.59375 Z M 27.703125 -252.234375 L 27.703125 -254.34375 L 26.859375 -254.34375 L 26.859375 -252.234375 Z M 115.84375 -254.34375 C 115.84375 -254.34375 115.28125 -253.78125 114.15625 -252.65625 L 118.359375 -252.234375 L 119.203125 -253.5 L 117.515625 -253.921875 C 117.515625 -254.203125 116.957031 -254.34375 115.84375 -254.34375 Z M 121.71875 -253.5 C 121.71875 -252.9375 121.859375 -252.515625 122.140625 -252.234375 L 122.546875 -251.40625 L 125.078125 -251.40625 L 125.078125 -253.5 Z M 156.96875 -252.234375 L 156.96875 -253.5 L 155.296875 -253.5 L 155.296875 -252.234375 Z M 98.203125 -249.296875 L 97.796875 -250.140625 L 96.53125 -249.296875 L 96.53125 -248.46875 Z M 129.265625 -248.46875 C 129.828125 -249.019531 129.828125 -249.296875 129.265625 -249.296875 L 128.421875 -250.140625 C 127.867188 -249.578125 127.59375 -249.296875 127.59375 -249.296875 L 127.59375 -248.46875 Z M 115.84375 -246.78125 L 116.671875 -246.78125 L 116.671875 -248.46875 L 115.84375 -248.46875 Z M 121.71875 -245.109375 C 121.15625 -244.546875 120.316406 -243.984375 119.203125 -243.421875 L 117.515625 -242.171875 L 121.71875 -242.171875 Z M 130.953125 -243.84375 C 130.390625 -244.40625 128.988281 -244.6875 126.75 -244.6875 C 126.75 -244.40625 126.957031 -244.191406 127.375 -244.046875 C 127.800781 -243.910156 128.148438 -243.703125 128.421875 -243.421875 C 128.421875 -243.421875 128.984375 -243.285156 130.109375 -243.015625 L 130.53125 -243.015625 L 130.53125 -243.421875 Z M 137.25 -242.59375 C 136.96875 -242.59375 136.6875 -242.519531 136.40625 -242.375 C 136.125 -242.238281 135.84375 -242.171875 135.5625 -242.171875 L 136.40625 -240.0625 L 138.078125 -240.90625 L 138.921875 -241.75 Z M 158.640625 -238.390625 C 158.640625 -239.503906 157.941406 -240.625 156.546875 -241.75 L 156.546875 -237.546875 Z M 139.34375 -240.0625 C 138.21875 -239.507812 137.65625 -238.953125 137.65625 -238.390625 C 137.65625 -237.828125 138.21875 -237.546875 139.34375 -237.546875 L 141.4375 -237.125 C 142 -238.53125 142 -239.929688 141.4375 -241.328125 Z M 85.625 -238.390625 C 86.175781 -237.273438 86.453125 -236.4375 86.453125 -235.875 L 87.296875 -233.359375 L 88.984375 -234.1875 L 88.5625 -235.453125 L 88.140625 -236.296875 L 88.140625 -237.546875 C 88.140625 -238.109375 88.554688 -238.390625 89.390625 -238.390625 Z M 141.859375 -235.453125 C 140.742188 -236.015625 139.90625 -236.296875 139.34375 -236.296875 L 138.921875 -234.1875 L 139.34375 -233.78125 L 141.015625 -233.78125 L 141.015625 -234.1875 L 141.859375 -234.1875 Z M 160.328125 -230.84375 C 161.160156 -231.113281 161.300781 -232.09375 160.75 -233.78125 C 159.070312 -232.9375 157.8125 -232.09375 156.96875 -231.25 Z M 163.6875 -230 C 163.6875 -229.71875 163.96875 -229.296875 164.53125 -228.734375 C 165.082031 -228.179688 165.5 -227.90625 165.78125 -227.90625 C 165.5 -229.019531 165.082031 -229.578125 164.53125 -229.578125 Z M 69.25 -158.640625 C 83.238281 -160.597656 95.0625 -163.816406 104.71875 -168.296875 C 114.375 -172.773438 121.859375 -180.191406 127.171875 -190.546875 C 131.648438 -200.054688 133.890625 -207.191406 133.890625 -211.953125 C 133.890625 -215.023438 133.328125 -217.679688 132.203125 -219.921875 L 132.203125 -220.34375 C 131.085938 -223.414062 127.867188 -225.65625 122.546875 -227.0625 L 117.09375 -227.484375 C 113.175781 -227.484375 109.117188 -226.921875 104.921875 -225.796875 L 75.546875 -219.078125 Z M 151.09375 -220.765625 C 151.09375 -221.328125 150.953125 -221.742188 150.671875 -222.015625 L 149 -222.4375 L 149 -220.765625 Z M 150.671875 -215.734375 C 151.515625 -216.566406 151.9375 -217.40625 151.9375 -218.25 L 150.25 -218.25 L 148.578125 -217.40625 C 148.015625 -216.84375 147.875 -216.5625 148.15625 -216.5625 Z M 156.546875 -216.5625 C 157.941406 -216.5625 158.640625 -217.125 158.640625 -218.25 L 156.546875 -218.25 Z M 187.609375 -212.375 C 187.609375 -211.53125 187.328125 -211.109375 186.765625 -211.109375 C 187.046875 -210.828125 187.394531 -210.6875 187.8125 -210.6875 C 188.238281 -210.6875 188.585938 -210.546875 188.859375 -210.265625 L 191.390625 -209.84375 C 191.390625 -210.40625 191.523438 -210.6875 191.796875 -210.6875 C 192.078125 -210.96875 192.21875 -211.390625 192.21875 -211.953125 C 192.21875 -213.066406 191.660156 -214.328125 190.546875 -215.734375 L 190.546875 -212.375 Z M 154.875 -213.203125 C 154.875 -212.929688 154.59375 -212.796875 154.03125 -212.796875 L 156.96875 -211.953125 L 156.546875 -212.796875 C 156.265625 -213.066406 155.847656 -213.203125 155.296875 -213.203125 Z M 156.546875 -209.015625 L 156.96875 -209.015625 L 155.703125 -210.265625 L 155.296875 -209.84375 Z M 191.390625 -209.015625 L 190.546875 -209.015625 L 190.546875 -199.359375 L 191.390625 -199.359375 Z M 190.96875 -190.546875 C 190.96875 -191.941406 191.664062 -193.203125 193.0625 -194.328125 C 191.664062 -194.609375 190.96875 -195.304688 190.96875 -196.421875 C 191.25 -196.984375 191.109375 -197.820312 190.546875 -198.9375 L 190.546875 -169.140625 C 191.660156 -170.816406 192.21875 -172.492188 192.21875 -174.171875 L 191.796875 -179.21875 C 191.523438 -180.332031 191.390625 -181.726562 191.390625 -183.40625 C 191.390625 -184.53125 191.523438 -185.234375 191.796875 -185.515625 C 191.796875 -186.628906 191.519531 -188.023438 190.96875 -189.703125 Z M 147.734375 -191.390625 C 146.890625 -193.347656 145.351562 -194.328125 143.125 -194.328125 Z M 151.09375 -188.03125 L 151.09375 -186.765625 L 154.875 -186.765625 L 154.875 -188.03125 Z M 143.953125 -182.578125 C 143.953125 -182.847656 143.675781 -183.265625 143.125 -183.828125 C 142.28125 -184.390625 141.578125 -184.671875 141.015625 -184.671875 L 140.1875 -181.734375 Z M 40.296875 -176.28125 C 40.015625 -177.113281 39.453125 -177.953125 38.609375 -178.796875 C 38.046875 -179.078125 37.765625 -179.632812 37.765625 -180.46875 C 37.210938 -179.632812 35.816406 -178.9375 33.578125 -178.375 L 36.9375 -177.53125 C 38.050781 -176.96875 38.609375 -176.550781 38.609375 -176.28125 Z M 132.625 -176.28125 C 132.90625 -176.28125 133.460938 -176.066406 134.296875 -175.640625 C 135.140625 -175.222656 135.84375 -175.15625 136.40625 -175.4375 C 136.96875 -175.71875 137.382812 -176.132812 137.65625 -176.6875 L 137.65625 -178.796875 L 134.3125 -179.21875 C 133.75 -178.9375 133.328125 -178.722656 133.046875 -178.578125 C 132.765625 -178.441406 132.765625 -178.375 133.046875 -178.375 C 132.484375 -178.375 132.203125 -177.953125 132.203125 -177.109375 Z M 31.0625 -177.953125 C 31.0625 -177.671875 31.335938 -177.25 31.890625 -176.6875 L 32.734375 -177.109375 L 32.734375 -177.53125 C 33.296875 -178.09375 33.578125 -178.515625 33.578125 -178.796875 L 31.0625 -178.796875 Z M 40.296875 -172.5 C 39.734375 -172.78125 38.960938 -173.269531 37.984375 -173.96875 C 37.003906 -174.664062 36.09375 -175.015625 35.25 -175.015625 L 33.578125 -174.171875 C 32.453125 -173.617188 31.613281 -173.0625 31.0625 -172.5 L 32.734375 -172.078125 C 33.296875 -171.515625 33.859375 -171.234375 34.421875 -171.234375 Z M 143.53125 -174.171875 L 142.703125 -172.5 L 144.375 -172.078125 L 145.21875 -173.75 Z M 116.671875 -168.296875 C 116.117188 -168.296875 115.5625 -168.085938 115 -167.671875 C 114.4375 -167.253906 114.15625 -166.765625 114.15625 -166.203125 C 114.71875 -165.640625 115.554688 -165.359375 116.671875 -165.359375 L 116.671875 -163.265625 C 117.234375 -163.265625 118.632812 -163.6875 120.875 -164.53125 C 119.757812 -165.363281 118.359375 -165.78125 116.671875 -165.78125 L 116.671875 -166.625 C 117.234375 -167.1875 117.234375 -167.742188 116.671875 -168.296875 Z M 131.78125 -166.203125 L 130.953125 -167.875 L 128.421875 -165.359375 L 131.78125 -165.359375 Z M 31.890625 -167.046875 L 31.0625 -167.046875 L 31.890625 -164.109375 L 32.734375 -164.109375 Z M 124.234375 -162.421875 C 125.066406 -163.828125 125.066406 -165.085938 124.234375 -166.203125 L 121.71875 -166.203125 C 122.832031 -163.960938 123.671875 -162.703125 124.234375 -162.421875 Z M 31.890625 -163.265625 L 31.0625 -161.578125 L 31.890625 -161.171875 L 32.734375 -162.84375 Z M 42.8125 -162.421875 L 42.8125 -160.75 L 44.90625 -160.75 L 44.90625 -162.421875 Z M 98.203125 -162 L 98.203125 -160.328125 L 100.3125 -160.75 Z M 120.875 -160.75 C 119.195312 -159.90625 117.796875 -158.925781 116.671875 -157.8125 L 120.03125 -157.8125 L 126.75 -156.125 L 126.328125 -156.546875 L 125.90625 -157.390625 L 125.90625 -157.8125 L 121.71875 -157.8125 Z M 128.421875 -153.609375 C 128.984375 -153.609375 129.265625 -153.75 129.265625 -154.03125 C 129.265625 -154.875 129.125 -155.429688 128.84375 -155.703125 L 127.59375 -156.96875 C 126.1875 -155.289062 125.90625 -154.03125 126.75 -153.1875 Z M 119.203125 -149.421875 C 119.753906 -149.421875 120.3125 -149.140625 120.875 -148.578125 C 122.550781 -149.972656 123.390625 -151.09375 123.390625 -151.9375 L 122.96875 -152.765625 L 122.546875 -153.1875 C 122.273438 -153.46875 122 -154.171875 121.71875 -155.296875 L 120.875 -154.453125 L 120.03125 -154.453125 L 119.203125 -153.609375 Z M 26.015625 -153.1875 C 25.742188 -153.1875 25.609375 -152.910156 25.609375 -152.359375 L 27.703125 -152.359375 C 27.703125 -152.628906 27.140625 -153.328125 26.015625 -154.453125 Z M 135.140625 -149.828125 L 135.140625 -151.515625 L 131.78125 -150.671875 L 131.78125 -149.421875 Z M 127.59375 -149 C 125.351562 -149 124.234375 -148.4375 124.234375 -147.3125 C 124.234375 -146.476562 125.070312 -146.0625 126.75 -146.0625 L 127.59375 -146.0625 Z M 38.609375 -148.578125 L 36.09375 -147.734375 L 36.09375 -147.3125 L 39.453125 -148.15625 Z M 92.328125 -145.21875 C 92.328125 -145.21875 92.890625 -145.773438 94.015625 -146.890625 L 92.328125 -148.15625 C 91.210938 -147.875 90.65625 -147.175781 90.65625 -146.0625 Z M 129.265625 -146.0625 C 127.585938 -145.21875 126.75 -144.238281 126.75 -143.125 L 129.265625 -143.125 C 130.390625 -143.957031 130.390625 -144.9375 129.265625 -146.0625 Z M 125.90625 -142.28125 C 125.90625 -143.113281 125.347656 -143.8125 124.234375 -144.375 C 123.671875 -144.375 123.109375 -144.164062 122.546875 -143.75 C 121.992188 -143.332031 121.71875 -142.984375 121.71875 -142.703125 C 122.269531 -142.421875 123.109375 -142.28125 124.234375 -142.28125 Z M 136.40625 -141.4375 C 136.40625 -141.71875 136.125 -141.859375 135.5625 -141.859375 C 135.5625 -141.859375 135.488281 -141.925781 135.34375 -142.0625 C 135.207031 -142.207031 135.140625 -142.28125 135.140625 -142.28125 L 134.3125 -142.703125 L 131.359375 -142.703125 C 131.921875 -141.578125 132.203125 -140.457031 132.203125 -139.34375 C 133.046875 -139.0625 133.75 -139.0625 134.3125 -139.34375 L 136.40625 -139.34375 Z M 90.65625 -135.984375 L 88.984375 -135.984375 L 88.984375 -135.140625 L 90.65625 -135.140625 Z M 131.78125 -133.46875 C 132.90625 -133.46875 133.609375 -133.609375 133.890625 -133.890625 C 134.441406 -134.441406 134.71875 -134.859375 134.71875 -135.140625 C 134.164062 -135.703125 132.910156 -135.984375 130.953125 -135.984375 Z M 90.65625 -129.265625 C 90.65625 -128.703125 90.796875 -128.421875 91.078125 -128.421875 L 92.328125 -128.421875 C 92.609375 -129.828125 92.609375 -130.53125 92.328125 -130.53125 C 91.210938 -130.53125 90.65625 -130.109375 90.65625 -129.265625 Z M 131.359375 -128.421875 C 129.960938 -127.023438 129.265625 -125.769531 129.265625 -124.65625 L 130.109375 -124.234375 L 133.046875 -124.234375 L 132.203125 -126.75 Z M 133.46875 -123.8125 L 132.203125 -122.140625 L 133.890625 -121.71875 L 135.140625 -123.390625 Z M 137.25 -120.03125 C 138.644531 -120.03125 139.898438 -120.453125 141.015625 -121.296875 L 137.25 -122.140625 C 136.6875 -121.015625 136.6875 -120.3125 137.25 -120.03125 Z M 131.359375 -121.296875 C 129.960938 -122.128906 128.707031 -121.988281 127.59375 -120.875 C 128.144531 -120.3125 129.125 -120.03125 130.53125 -120.03125 C 131.082031 -120.03125 131.359375 -120.3125 131.359375 -120.875 Z M 93.171875 -113.734375 L 92.328125 -113.3125 L 92.75 -112.484375 L 93.59375 -112.484375 Z M 138.078125 -97.375 C 138.078125 -98.207031 137.9375 -98.765625 137.65625 -99.046875 C 137.65625 -99.046875 137.585938 -98.972656 137.453125 -98.828125 C 137.316406 -98.691406 137.25 -98.625 137.25 -98.625 L 136.828125 -98.203125 L 136.40625 -98.203125 Z M 172.921875 -78.484375 C 173.472656 -78.484375 173.75 -78.90625 173.75 -79.75 L 171.65625 -79.75 Z M 175.015625 -75.96875 L 172.921875 -75.96875 L 172.921875 -73.453125 C 173.753906 -72.609375 174.875 -72.1875 176.28125 -72.1875 C 175.71875 -73.03125 175.4375 -73.867188 175.4375 -74.703125 Z M 177.109375 -67.15625 L 176.28125 -65.890625 L 177.109375 -65.46875 L 177.953125 -66.734375 Z M 183.40625 -49.9375 C 183.40625 -51.0625 182.566406 -51.765625 180.890625 -52.046875 C 180.054688 -51.203125 179.640625 -50.640625 179.640625 -50.359375 C 179.640625 -49.523438 179.988281 -48.753906 180.6875 -48.046875 C 181.382812 -47.347656 182.015625 -47 182.578125 -47 L 182.984375 -48.265625 Z M 172.078125 -43.65625 C 172.640625 -43.65625 173.410156 -43.789062 174.390625 -44.0625 C 175.367188 -44.34375 176.132812 -44.765625 176.6875 -45.328125 L 175.4375 -45.75 L 174.171875 -46.59375 C 173.617188 -46.863281 172.640625 -47 171.234375 -47 C 170.679688 -47 170.125 -46.859375 169.5625 -46.578125 C 169 -46.304688 168.71875 -45.890625 168.71875 -45.328125 C 169.84375 -44.210938 170.960938 -43.65625 172.078125 -43.65625 Z M 27.703125 -19.3125 C 29.097656 -19.3125 29.9375 -19.867188 30.21875 -20.984375 L 28.546875 -20.984375 C 28.546875 -19.867188 28.265625 -19.3125 27.703125 -19.3125 Z M 27.703125 -19.3125 "/></g></g></g></svg>